# xmcd
#
# Track frame offsets:
#	150
#	14106
#	28062
#	44718
#	59648
#	73379
#	89735
#	104741
#	123272
#	142102
#	159508
#	174438
#	187493
#	200924
#	216379
#	233334
#	245864
#	257945
#
# Disc length: 3649 seconds
#
# Revision: 1
# Processed by: cddbd v1.5.2PL0 Copyright (c) Steve Scherf et al.
# Submitted via: audiograbber 1.83.01
#
DISCID=350e3f12
DTITLE=Various Artist - CDX 049
DYEAR=1993
DGENRE=Country
TTITLE0=Zaca Creek - Broken Heartland
TTITLE1=Michael Martin Murphey - Dancing With A Memory
TTITLE2=Lisa Stewart - Drive Time
TTITLE3=The Bellamy Brothers - Hard Way To Make An Easy Living
TTITLE4=Brooks and Dunn - Hard Workin' Man
TTITLE5=Gibson/Miller Band - High Rolling
TTITLE6=Doug Supernaw - Honky Tonkin' Fool
TTITLE7=Evangeline - If I Had A Heart
TTITLE8=Garth Brooks - Learning To Live Again
TTITLE9=Steve Wariner - Like A River To The Sea
TTITLE10=Skip Ewing - Losing You Is New To Me
TTITLE11=Neal McCoy - Now I Pray For Rain
TTITLE12=Sammy Kershaw - She Don't Know She's Beautiful
TTITLE13=Tracy Byrd - Someone To Give My Love To
TTITLE14=Randy Huston - Tequila For Me
TTITLE15=David Frizell - The One That Got Away
TTITLE16=Aaron Barker - Three Nickels And A Dime
TTITLE17=Alan Jackson - Tonight I Climbed The Wall
EXTD=
EXTT0=
EXTT1=
EXTT2=
EXTT3=
EXTT4=
EXTT5=
EXTT6=
EXTT7=
EXTT8=
EXTT9=
EXTT10=
EXTT11=
EXTT12=
EXTT13=
EXTT14=
EXTT15=
EXTT16=
EXTT17=
PLAYORDER=
